<svg version="1.2" baseProfile="tiny-ps" xmlns="http://www.w3.org/2000/svg" viewBox="0 0 400 400" width="512" height="512">
	<title>flow-svg</title>
	<style>
		tspan { white-space:pre }
		.shp0 { fill: #0275ff } 
		.shp1 { fill: #46ca00 } 
		.shp2 { fill: #ff1801 } 
		.shp3 { fill: #ffffff } 
	</style>
	<path id="path4487" class="shp0" d="M90.05 155.75C71.95 155.75 62.9 164.77 62.9 182.8L62.9 187.95L62.9 208.5L62.9 247.44L42.4 247.44L42.4 208.5L42.4 187.95L42.4 182.8C42.4 151.03 58.28 135.15 90.05 135.15C92.88 135.15 95.32 136.18 97.35 138.25C99.32 140.22 100.3 142.6 100.3 145.4C100.3 148.3 99.32 150.77 97.35 152.8C95.32 154.77 92.88 155.75 90.05 155.75" />
	<path id="path4489" class="shp1" d="M247.1 190.06C261.28 190.87 268.76 188.72 273.37 195.11L294.02 258.35L314.02 196.96C315.72 191.9 319.04 189.36 323.97 189.36C328.84 189.36 332.12 191.9 333.82 196.96L353.77 258.45L374.47 195.11C374.97 193.38 376.02 192 377.62 190.96C379.19 189.9 381.22 189.36 383.72 189.36C385.16 189.36 386.49 189.63 387.72 190.16C388.99 190.7 390.07 191.45 390.97 192.41C391.91 193.35 392.67 194.43 393.27 195.66C393.77 196.93 394.02 198.25 394.02 199.61C394.02 200.85 393.77 202.16 393.27 203.56L363.42 287.65C362.82 289.55 361.74 291.13 360.17 292.4C358.61 293.63 356.47 294.25 353.77 294.25C351.47 294.25 349.44 293.6 347.67 292.3C345.91 290.97 344.76 289.42 344.22 287.65L323.97 226.85L303.67 287.65C303.11 289.55 301.94 291.13 300.17 292.4C298.37 293.63 296.32 294.25 294.02 294.25C291.76 294.25 289.76 293.63 288.02 292.4C286.26 291.13 285.06 289.55 284.42 287.65L265.27 214.87C259.18 205.19 244.7 218.88 243.48 201.1C242.91 192.74 249.38 203.73 248.25 199.26" />
	<path id="path4491" class="shp2" d="M145.95 210.95L142.6 211.45L127.55 211.45C124.72 211.45 122.32 210.47 120.35 208.5C118.38 206.47 117.4 204.03 117.4 201.2L117.4 64.3C117.4 61.43 118.38 59.02 120.35 57.05C122.25 55.02 124.68 54 127.65 54C130.58 54 133.03 55.02 135 57.05C136.9 59.02 137.85 61.43 137.85 64.3L137.85 190.9L142.04 191.18C143.21 191.18 144.88 191.08 145.95 191.45C145.42 194.55 145.15 197.77 145.15 201.1C145.15 204.5 145.42 207.78 145.95 210.95Z" />
	<path id="path4493" fill-rule="evenodd" class="shp3" d="M145.95 210.95C145.42 207.78 145.15 204.5 145.15 201.1C145.15 197.77 145.42 194.55 145.95 191.45C147.78 180.28 152.9 170.5 161.3 162.1C172.07 151.33 185.07 145.95 200.3 145.95C215.4 145.95 228.38 151.33 239.25 162.1C244.65 167.5 248.68 173.43 251.35 179.9C252.28 182.2 253.05 184.57 253.65 187C254.78 191.47 255.37 196.17 255.4 201.1C255.4 211.97 252.7 221.67 247.3 230.2C245.07 233.67 242.38 236.95 239.25 240.05C228.38 250.82 215.4 256.2 200.3 256.2C185.07 256.2 172.07 250.82 161.3 240.05C152.93 231.68 147.82 221.98 145.95 210.95ZM186.7 169.3C182.5 171.13 178.87 173.62 175.8 176.75C172.7 179.85 170.27 183.5 168.5 187.7C166.67 191.9 165.75 196.37 165.75 201.1C165.75 205.8 166.67 210.25 168.5 214.45C170.27 218.65 172.7 222.33 175.8 225.5C178.87 228.57 182.5 231.02 186.7 232.85C190.9 234.72 195.43 235.65 200.3 235.65C205.07 235.65 209.55 234.72 213.75 232.85C217.95 231.02 221.63 228.53 224.8 225.4C227.87 222.23 230.33 218.58 232.2 214.45C233.97 210.25 234.85 205.8 234.85 201.1C234.85 196.37 233.97 191.93 232.2 187.8C230.33 183.6 227.87 179.92 224.8 176.75C221.63 173.62 217.95 171.13 213.75 169.3C209.55 167.47 205.07 166.55 200.3 166.55C195.43 166.55 190.9 167.47 186.7 169.3Z" />
	<path id="path4487-1" class="shp0" d="M15.25 273.63C33.35 273.63 42.4 264.62 42.4 246.58C62.9 246.58 42.4 246.58 62.9 246.58C62.9 278.35 47.02 294.23 15.25 294.23C12.42 294.23 9.98 293.2 7.95 291.13C5.98 289.17 5 286.78 5 283.98C5 281.08 5.98 278.62 7.95 276.58C9.98 274.62 12.42 273.63 15.25 273.63" />
	<path id="path4487-1-5" class="shp0" d="M90.03 211.45C71.93 211.45 62.88 220.47 62.88 238.5C42.38 238.5 62.88 238.5 42.38 238.5C42.38 206.73 58.27 190.85 90.03 190.85C92.87 190.85 95.3 191.88 97.33 193.95C99.3 195.92 100.28 198.3 100.28 201.1C100.28 204 99.3 206.47 97.33 208.5C95.3 210.47 92.87 211.45 90.03 211.45Z" />
</svg>