<?xml version="1.0" encoding="utf-8"?>
<svg width="371.05066" height="240.25" viewBox="0 0 389.06 240.25" version="1.1" id="svg4497" xmlns="http://www.w3.org/2000/svg">
  <path style="fill:#0275ff;stroke:none" id="path4487" d="m 85.050647,101.75 c -18.1,0 -27.15,9.01667 -27.15,27.05 v 5.15 20.55 38.93794 h -20.5 V 154.5 133.95 128.8 c 0,-31.766667 15.88334,-47.65 47.65001,-47.65 2.83333,0 5.26666,1.033333 7.29999,3.1 1.96667,1.966667 2.95,4.35 2.95,7.15 0,2.9 -0.98333,5.366667 -2.95,7.4 -2.03333,1.96667 -4.46666,2.95 -7.29999,2.95"/>
  <path style="fill:#46ca00;stroke:none" id="path4489" d="M 242.099 136.065 C 256.277 136.865 263.758 134.717 268.372 141.114 L 289.022 204.347 L 309.022 142.964 C 310.722 137.897 314.039 135.364 318.972 135.364 C 323.839 135.364 327.122 137.897 328.822 142.964 L 348.772 204.447 L 369.472 141.114 C 369.972 139.381 371.022 137.997 372.622 136.964 C 374.189 135.897 376.222 135.364 378.722 135.364 C 380.156 135.364 381.489 135.631 382.722 136.164 C 383.989 136.697 385.072 137.447 385.972 138.414 C 386.906 139.347 387.672 140.431 388.272 141.664 C 388.772 142.931 389.022 144.247 389.022 145.614 C 389.022 146.847 388.772 148.164 388.272 149.564 L 358.422 233.65 C 357.822 235.55 356.739 237.133 355.172 238.4 C 353.606 239.633 351.472 240.25 348.772 240.25 C 346.472 240.25 344.439 239.6 342.672 238.3 C 340.906 236.967 339.756 235.417 339.222 233.65 L 318.972 172.85 L 298.672 233.65 C 298.106 235.55 296.939 237.133 295.172 238.4 C 293.372 239.633 291.322 240.25 289.022 240.25 C 286.756 240.25 284.756 239.633 283.022 238.4 C 281.256 237.133 280.056 235.55 279.422 233.65 L 260.272 160.873 C 254.177 151.191 239.702 164.876 238.484 147.101 C 237.911 138.74 244.382 149.728 243.248 145.261"/>
  <path style="fill:#ff1801;stroke:none" id="path4491" d="M 140.951 156.95 L 137.601 157.45 L 122.551 157.45 C 119.717 157.45 117.317 156.467 115.351 154.5 C 113.384 152.467 112.401 150.033 112.401 147.2 L 112.401 10.3 C 112.401 7.433 113.384 5.017 115.351 3.05 C 117.251 1.017 119.684 0 122.651 0 C 125.584 0 128.034 1.017 130.001 3.05 C 131.901 5.017 132.851 7.433 132.851 10.3 L 132.851 136.9 L 137.041 137.18 C 138.208 137.18 139.884 137.083 140.951 137.45 C 140.417 140.55 140.151 143.767 140.151 147.1 C 140.151 150.5 140.417 153.783 140.951 156.95"/>
  <path style="fill:#ffffff;stroke:none" id="path4493" d="m 140.95065,156.95 q -0.8,-4.75 -0.8,-9.85 0,-5 0.8,-9.65 2.75,-16.75 15.35,-29.35 16.15,-16.15 39,-16.15 22.65,0 38.95,16.15 8.1,8.1 12.1,17.8 1.4,3.45 2.3,7.1 1.7,6.7 1.75,14.1 0,16.3 -8.1,29.1 -3.35,5.2 -8.05,9.85 -16.3,16.15 -38.95,16.15 -22.85,0 -39,-16.15 -12.55,-12.55 -15.35,-29.1 m 54.35,-44.4 q -7.3,0 -13.6,2.75 -6.3,2.75 -10.9,7.45 -4.65,4.65 -7.3,10.95 -2.75,6.3 -2.75,13.4 0,7.05 2.75,13.35 2.65,6.3 7.3,11.05 4.6,4.6 10.9,7.35 6.3,2.8 13.6,2.8 7.15,0 13.45,-2.8 6.3,-2.75 11.05,-7.45 4.6,-4.75 7.4,-10.95 2.65,-6.3 2.65,-13.35 0,-7.1 -2.65,-13.3 -2.8,-6.3 -7.4,-11.05 -4.75,-4.7 -11.05,-7.45 -6.3,-2.75 -13.45,-2.75"/>
  <path style="fill:#0275ff;stroke:none" id="path4487-1" d="m 10.24999,219.63287 c 18.099995,0 27.149996,-9.01667 27.149996,-27.04999 20.500009,0 0,0 20.500009,0 0,31.76666 -15.88334,47.64999 -47.650005,47.64999 -2.8333301,0 -5.2666601,-1.03333 -7.29999,-3.1 -1.96667005,-1.96666 -2.95,-4.35 -2.95,-7.15 0,-2.9 0.98332995,-5.36666 2.95,-7.4 2.0333299,-1.96667 4.4666599,-2.95 7.29999,-2.95"/>
  <path style="fill:#0275ff;stroke:none" id="path4487-1-5" d="m 85.034687,157.45 c -18.1,0 -27.15,9.01667 -27.15,27.05 -20.5,0 0,0 -20.5,0 0,-31.76666 15.88333,-47.65 47.65,-47.65 2.83333,0 5.26666,1.03334 7.29999,3.1 1.96667,1.96667 2.95,4.35 2.95,7.15 0,2.9 -0.98333,5.36667 -2.95,7.4 -2.03333,1.96667 -4.46666,2.95 -7.29999,2.95"/>
</svg>